<?xml version="1.0" standalone="no"?>
<!DOCTYPE svg PUBLIC "-//W3C//DTD SVG 20010904//EN"
 "http://www.w3.org/TR/2001/REC-SVG-20010904/DTD/svg10.dtd">
<svg version="1.0" xmlns="http://www.w3.org/2000/svg"
 width="1024.000000pt" height="1024.000000pt" viewBox="0 0 1024.000000 1024.000000"
 preserveAspectRatio="xMidYMid meet">
<metadata>
Created by potrace 1.16, written by Peter Selinger 2001-2019
</metadata>
<g transform="translate(0.000000,1024.000000) scale(0.100000,-0.100000)"
fill="#000000" stroke="none">
<path d="M0 5120 l0 -5120 5120 0 5120 0 0 5120 0 5120 -5120 0 -5120 0 0
-5120z m7595 2901 c81 -33 163 -115 196 -196 19 -49 23 -79 24 -160 0 -99 -2
-106 -134 -565 -73 -256 -144 -493 -156 -526 -36 -97 -99 -186 -192 -274 -69
-65 -104 -90 -186 -130 -56 -27 -127 -53 -157 -59 -34 -6 -426 -13 -1003 -17
-947 -7 -948 -7 -980 -28 -18 -12 -40 -37 -50 -56 -10 -19 -124 -406 -253
-860 -263 -920 -257 -890 -193 -956 18 -19 48 -38 65 -43 19 -5 394 -7 871 -4
564 4 862 2 912 -5 147 -21 264 -108 312 -230 18 -44 23 -78 23 -152 1 -93 -3
-107 -137 -580 -149 -520 -178 -599 -264 -705 -106 -131 -275 -239 -419 -270
-58 -12 -242 -15 -1185 -15 -1090 0 -1118 0 -1180 20 -169 53 -270 210 -256
395 3 45 38 183 96 387 50 175 91 332 91 350 0 46 -29 99 -69 125 -33 23 -40
23 -311 23 -153 0 -302 5 -331 10 -123 23 -220 98 -273 210 -29 60 -31 73 -31
170 l1 105 327 1140 c233 807 338 1160 363 1208 97 193 284 344 490 397 69 18
112 20 408 20 362 0 375 2 419 61 10 15 66 189 122 388 57 199 115 386 129
416 97 212 325 391 546 428 14 3 538 4 1165 3 l1140 -1 60 -24z"/>
</g>
</svg>
