<?xml version="1.0" standalone="no"?>
<!DOCTYPE svg PUBLIC "-//W3C//DTD SVG 20010904//EN"
 "http://www.w3.org/TR/2001/REC-SVG-20010904/DTD/svg10.dtd">
<svg version="1.0" xmlns="http://www.w3.org/2000/svg"
 width="1024.000000pt" height="1024.000000pt" viewBox="0 0 1024.000000 1024.000000"
 preserveAspectRatio="xMidYMid meet">
<metadata>
Created by potrace 1.16, written by Peter Selinger 2001-2019
</metadata>
<g transform="translate(0.000000,1024.000000) scale(0.100000,-0.100000)"
fill="#000000" stroke="none">
<path d="M5204 8035 c-205 -44 -415 -212 -518 -413 -9 -18 -66 -205 -127 -415
-111 -385 -120 -409 -174 -440 -14 -8 -136 -14 -385 -18 -347 -5 -368 -6 -430
-28 -202 -71 -364 -211 -455 -391 -23 -45 -135 -421 -361 -1210 l-328 -1145 0
-95 c0 -117 24 -186 91 -260 103 -114 166 -130 543 -130 257 0 277 -1 308 -20
43 -26 72 -76 72 -123 0 -21 -41 -182 -90 -357 -100 -353 -111 -413 -86 -508
32 -127 92 -202 204 -255 l67 -32 1127 -3 c1269 -3 1205 -6 1363 72 155 77
283 203 355 350 33 67 293 966 312 1079 14 88 -1 179 -44 260 -37 69 -91 119
-168 156 l-55 26 -925 5 c-866 5 -927 6 -958 23 -45 25 -72 72 -72 128 0 47
468 1699 493 1740 6 11 28 30 47 42 l35 22 970 5 970 5 64 23 c200 72 360 210
449 387 37 72 310 1021 319 1106 15 145 -47 286 -160 363 -101 69 -49 66
-1282 65 -885 0 -1122 -3 -1171 -14z"/>
</g>
</svg>
