<?xml version="1.0" standalone="no"?>
<!DOCTYPE svg PUBLIC "-//W3C//DTD SVG 20010904//EN"
 "http://www.w3.org/TR/2001/REC-SVG-20010904/DTD/svg10.dtd">
<svg version="1.0" xmlns="http://www.w3.org/2000/svg"
 width="3999.000000pt" height="1025.000000pt" viewBox="0 0 3999.000000 1025.000000"
 preserveAspectRatio="xMidYMid meet">
<metadata>
Created by potrace 1.16, written by Peter Selinger 2001-2019
</metadata>
<g transform="translate(0.000000,1025.000000) scale(0.100000,-0.100000)"
fill="#000000" stroke="none">
<path d="M1 7313 c1 -2497 3 -2930 14 -2883 8 30 162 570 344 1200 181 630
386 1343 456 1585 106 370 135 457 181 550 136 277 399 493 701 577 74 21 104
22 583 28 486 5 507 6 544 26 82 42 84 47 246 610 82 286 161 547 176 580 75
170 244 363 414 473 103 67 200 110 318 144 l77 22 1610 3 c1794 3 1686 7
1830 -66 189 -94 299 -308 281 -541 -11 -125 -388 -1445 -452 -1578 -130 -271
-396 -495 -694 -584 -75 -22 -76 -22 -1240 -30 -641 -5 -1269 -10 -1396 -11
l-231 -3 -40 -28 c-22 -15 -49 -45 -62 -67 -12 -21 -98 -303 -191 -627 -93
-323 -248 -862 -344 -1197 -97 -335 -176 -625 -176 -645 1 -84 83 -185 161
-197 22 -4 615 -7 1317 -8 1209 -1 1280 -2 1337 -19 195 -60 331 -198 380
-388 13 -48 16 -92 13 -179 -4 -102 -11 -137 -57 -299 -52 -179 -53 -186 -41
-239 17 -77 84 -145 159 -161 67 -14 255 -14 322 0 55 12 119 60 143 108 8 14
45 136 84 271 574 1990 593 2056 638 2149 110 230 296 412 537 526 185 88 194
89 762 95 l500 5 47 27 c25 15 56 43 67 62 12 18 88 268 171 555 124 433 157
536 195 611 164 317 480 545 816 590 57 8 310 10 789 7 621 -3 712 -5 760 -20
266 -81 412 -293 397 -577 -5 -83 -21 -151 -136 -553 -82 -284 -131 -474 -131
-503 0 -50 19 -95 59 -137 58 -63 45 -61 526 -68 480 -6 485 -7 612 -69 201
-99 313 -346 272 -599 -5 -35 -151 -555 -324 -1156 -173 -602 -315 -1104 -315
-1117 0 -53 24 -104 69 -149 60 -61 114 -73 295 -67 110 3 138 8 173 26 78 40
94 71 166 320 36 125 309 1071 607 2102 359 1240 553 1898 576 1945 106 222
299 414 528 525 56 27 137 59 181 72 l80 23 1605 3 c1775 3 1691 6 1830 -60
83 -40 194 -149 233 -230 47 -98 60 -169 55 -298 -5 -112 -9 -128 -137 -571
-72 -251 -131 -472 -131 -493 0 -76 51 -153 125 -187 54 -25 345 -28 403 -3
48 20 96 66 116 112 8 21 79 260 156 532 78 272 156 526 174 565 76 165 233
348 384 448 102 68 243 133 348 159 89 23 91 23 844 23 l755 0 77 -26 c98 -34
160 -73 230 -147 103 -108 143 -218 141 -392 l0 -115 -133 -460 c-81 -280
-133 -478 -133 -506 -1 -64 37 -135 92 -174 l43 -30 441 -6 c388 -5 449 -8
497 -23 157 -51 266 -140 329 -267 52 -104 65 -168 58 -304 -4 -93 -13 -137
-56 -290 -56 -193 -58 -223 -22 -293 24 -47 56 -77 103 -97 53 -22 343 -22
396 1 44 18 97 67 111 103 6 14 159 540 341 1169 181 629 343 1175 360 1213
102 241 334 467 589 574 163 68 166 68 728 74 l511 6 43 30 c23 17 51 42 61
56 11 14 86 257 169 545 158 550 185 622 280 759 62 91 200 224 296 288 89 59
214 118 313 148 75 23 77 23 825 27 823 3 824 3 950 -57 213 -101 330 -331
296 -580 -12 -92 -389 -1414 -432 -1514 -96 -226 -314 -446 -553 -558 -179
-83 -168 -82 -746 -88 -512 -6 -515 -6 -558 -29 -75 -40 -92 -75 -175 -369
-48 -166 -77 -287 -77 -316 0 -81 54 -159 132 -191 32 -14 98 -16 425 -16 443
-1 503 -7 622 -66 195 -96 302 -294 288 -533 -4 -73 -17 -138 -56 -274 -28
-97 -51 -193 -51 -212 0 -74 50 -149 123 -187 35 -17 56 -19 217 -16 l178 3
44 30 c24 17 53 49 64 70 12 22 51 144 88 270 450 1572 599 2075 640 2160 132
275 382 485 692 582 l89 28 770 0 c843 0 813 2 935 -60 202 -103 314 -332 281
-576 -6 -48 -144 -545 -341 -1228 -181 -631 -330 -1164 -330 -1184 0 -77 51
-154 125 -188 54 -25 335 -28 393 -3 43 18 88 58 108 96 8 15 165 550 349
1190 185 640 345 1192 357 1228 47 147 131 279 259 407 137 138 316 245 495
295 78 22 91 23 814 26 812 3 828 2 958 -59 130 -62 238 -197 276 -345 20 -77
21 -229 1 -309 -7 -33 -340 -1194 -739 -2580 -679 -2357 -729 -2527 -780
-2630 -157 -317 -481 -552 -817 -595 -46 -5 -280 -10 -524 -10 -404 0 -443 -2
-480 -19 -59 -26 -101 -80 -124 -158 -11 -38 -79 -273 -151 -523 -138 -480
-170 -566 -257 -689 -135 -191 -338 -344 -553 -418 l-95 -33 3863 0 3862 0 0
2182 c0 1200 -2 2179 -4 2177 -2 -2 -32 -103 -66 -224 -34 -121 -71 -237 -82
-258 -29 -58 -101 -125 -171 -158 l-62 -29 -273 0 c-252 0 -276 2 -311 20 -70
35 -110 114 -96 189 12 63 137 495 152 525 29 56 111 133 176 162 l62 29 252
3 c160 2 266 -1 292 -8 49 -13 99 -53 117 -95 11 -25 13 447 14 2853 l0 2882
-19995 0 -19995 0 1 -2937z m37605 -2720 c74 -40 109 -130 84 -223 -11 -44
-174 -611 -351 -1222 -97 -336 -98 -344 -38 -369 39 -16 117 -6 139 17 11 11
50 127 95 284 308 1068 380 1311 403 1353 33 62 99 122 170 155 56 27 60 27
308 30 170 2 265 0 295 -8 86 -24 150 -123 134 -209 -6 -34 -82 -299 -395
-1381 -72 -250 -163 -565 -202 -700 -39 -135 -82 -267 -96 -294 -33 -60 -100
-121 -172 -155 l-55 -26 -828 -3 c-589 -2 -840 1 -870 9 -84 22 -148 122 -132
208 4 20 71 259 150 531 79 272 227 785 330 1140 102 355 193 663 203 685 22
50 106 136 160 164 70 36 108 40 372 38 242 -2 257 -3 296 -24z m1985 -1076
c27 -15 52 -38 66 -63 43 -74 37 -102 -132 -685 -217 -750 -207 -721 -246
-775 -46 -64 -128 -120 -207 -140 -52 -13 -109 -15 -305 -12 l-242 3 -47 27
c-62 37 -92 98 -86 171 6 62 351 1253 379 1309 38 75 133 153 219 179 14 4
145 8 291 8 260 1 267 0 310 -22z"/>
<path d="M17173 5560 c-50 -12 -96 -43 -125 -85 -21 -31 -120 -362 -443 -1480
-319 -1104 -426 -1461 -458 -1530 -150 -321 -489 -572 -827 -614 -114 -15
-1362 -15 -1464 0 -201 27 -347 128 -428 294 -42 86 -53 142 -52 270 1 113 4
130 53 300 39 132 51 191 48 222 -7 62 -49 128 -105 160 -44 26 -55 28 -187
32 -178 4 -233 -7 -291 -61 -48 -44 -51 -51 -134 -342 -60 -208 -91 -280 -167
-395 -171 -256 -466 -444 -754 -481 -47 -5 -280 -10 -530 -10 l-446 0 -44 -23
c-81 -43 -86 -58 -245 -612 -158 -557 -191 -642 -295 -780 -139 -182 -341
-330 -539 -393 -36 -12 -72 -23 -80 -26 -8 -2 3140 -5 6995 -5 l7010 -1 -57
24 c-171 70 -291 212 -327 384 -14 66 -14 192 -1 262 8 43 607 2130 1066 3714
57 198 104 373 104 389 0 87 -67 181 -146 205 -52 15 -304 16 -359 1 -26 -7
-56 -28 -85 -58 -36 -37 -49 -61 -67 -121 -464 -1612 -650 -2249 -674 -2306
-45 -109 -123 -219 -228 -325 -152 -153 -321 -251 -517 -301 -88 -23 -93 -23
-829 -23 -813 0 -789 -2 -924 62 -137 65 -248 209 -280 361 -15 74 -13 215 4
288 7 33 185 654 394 1380 209 726 386 1343 392 1371 21 92 -25 189 -112 233
-33 18 -59 20 -206 20 -155 0 -172 -2 -213 -22 -84 -43 -87 -52 -230 -548
-740 -2575 -722 -2515 -820 -2661 -55 -81 -186 -216 -270 -279 -146 -108 -324
-181 -490 -200 -64 -8 -326 -10 -790 -8 l-695 3 -82 28 c-274 92 -417 350
-362 653 10 53 214 772 643 2258 86 296 156 555 156 575 0 86 -74 176 -165
200 -45 12 -273 13 -322 1z"/>
<path d="M10174 5546 c-50 -22 -103 -84 -119 -140 -176 -589 -685 -2384 -685
-2412 1 -74 65 -168 133 -193 16 -6 102 -11 196 -11 156 0 171 2 212 23 24 13
56 41 71 63 22 30 104 305 373 1237 229 795 345 1213 345 1243 0 61 -40 135
-93 171 -40 28 -41 28 -221 30 -136 2 -189 -1 -212 -11z"/>
<path d="M29131 4964 c-77 -39 -95 -73 -166 -322 -74 -259 -104 -334 -180
-447 -140 -211 -372 -383 -616 -456 -71 -22 -92 -23 -589 -28 l-515 -6 -44
-25 c-91 -52 -65 24 -491 -1450 -436 -1513 -452 -1564 -487 -1635 -49 -96
-113 -186 -194 -270 -138 -144 -288 -241 -457 -296 l-87 -28 2660 0 2660 0
-55 21 c-166 63 -290 205 -331 378 -17 74 -15 220 5 302 8 37 101 366 206 730
202 703 223 762 318 892 160 218 385 373 637 438 74 19 117 21 586 27 l506 6
40 27 c22 15 50 42 61 60 11 18 55 154 97 302 67 231 77 277 73 327 -5 72 -43
132 -104 164 l-41 22 -1299 6 c-1148 6 -1306 9 -1359 23 -260 69 -419 299
-401 579 4 65 19 139 56 268 27 97 50 192 50 210 0 47 -43 131 -81 159 -55 41
-93 48 -254 48 -143 0 -154 -1 -204 -26z"/>
<path d="M1 2078 l-1 -2078 4003 0 4002 0 -59 25 c-227 93 -348 295 -333 554
5 84 22 153 137 556 115 400 131 467 128 517 -5 66 -33 115 -92 156 l-39 27
-436 6 c-363 5 -446 8 -494 22 -227 66 -368 230 -397 466 -14 104 -1 195 56
392 37 129 45 173 42 216 -6 67 -46 128 -108 163 -43 24 -52 25 -215 25 -156
0 -173 -2 -211 -22 -46 -25 -85 -66 -102 -109 -6 -16 -37 -119 -68 -229 -80
-284 -148 -422 -281 -566 -149 -161 -336 -274 -548 -332 l-80 -21 -1602 -3
c-1779 -4 -1679 -7 -1822 63 -142 70 -243 206 -277 374 -29 145 -21 189 132
726 144 504 144 505 107 579 -22 43 -52 74 -98 98 -39 21 -54 22 -485 27
l-445 6 -69 26 c-166 64 -286 194 -330 359 -13 48 -15 -190 -15 -2023z"/>
</g>
</svg>
