<?xml version="1.0" standalone="no"?>
<!DOCTYPE svg PUBLIC "-//W3C//DTD SVG 20010904//EN"
 "http://www.w3.org/TR/2001/REC-SVG-20010904/DTD/svg10.dtd">
<svg version="1.0" xmlns="http://www.w3.org/2000/svg"
 width="3680.000000pt" height="1024.000000pt" viewBox="0 0 3680.000000 1024.000000"
 preserveAspectRatio="xMidYMid meet">
<metadata>
Created by potrace 1.16, written by Peter Selinger 2001-2019
</metadata>
<g transform="translate(0.000000,1024.000000) scale(0.100000,-0.100000)"
fill="#000000" stroke="none">
<path d="M0 7313 l1 -2928 23 90 c21 80 358 1253 776 2700 78 270 155 521 171
558 95 224 299 433 534 547 194 95 179 93 760 99 441 5 515 8 545 22 44 20 83
57 104 96 8 17 79 252 156 524 78 272 155 526 171 566 127 305 445 565 780
638 55 12 -212 14 -1978 14 l-2043 1 0 -2927z"/>
<path d="M7365 10226 c281 -68 452 -337 406 -636 -14 -91 -389 -1403 -426
-1491 -130 -308 -412 -544 -765 -641 -34 -9 -376 -13 -1420 -17 l-1375 -6 -42
-22 c-75 -41 -88 -69 -178 -381 -467 -1615 -615 -2135 -615 -2159 0 -79 53
-162 124 -194 39 -18 98 -19 1316 -19 1402 0 1350 2 1480 -62 83 -40 196 -151
233 -228 46 -96 60 -171 54 -300 -4 -100 -12 -139 -56 -295 -57 -197 -59 -228
-18 -300 12 -21 42 -53 65 -70 l44 -30 171 -3 c139 -3 178 0 213 13 62 24 109
81 133 162 11 37 160 554 331 1148 172 594 325 1114 341 1155 110 287 414 555
726 642 74 21 105 22 583 28 566 6 547 3 612 79 32 38 46 78 177 539 79 273
156 531 172 573 36 92 125 231 209 321 151 166 376 293 588 334 109 21 1476
20 1575 -1 104 -22 192 -70 268 -145 116 -115 167 -260 156 -439 -6 -83 -25
-159 -137 -551 -82 -286 -130 -472 -130 -500 1 -89 64 -173 149 -199 26 -7
168 -11 437 -11 440 0 486 -5 598 -60 211 -104 327 -343 287 -595 -6 -38 -152
-563 -326 -1165 -173 -602 -315 -1108 -315 -1125 0 -38 40 -123 71 -152 50
-45 88 -53 262 -53 152 0 167 2 208 23 24 13 56 41 72 63 21 31 128 387 503
1684 261 905 533 1847 604 2093 71 246 145 481 164 522 106 230 327 443 565
546 188 81 10 73 1839 76 1816 4 1698 8 1836 -65 132 -69 223 -188 262 -342
12 -49 15 -93 11 -180 -5 -111 -9 -131 -136 -570 -72 -250 -131 -471 -131
-491 0 -49 48 -139 89 -166 53 -36 96 -43 251 -43 124 0 151 3 190 21 51 23
86 53 105 89 7 15 79 255 159 535 180 627 208 692 379 872 138 146 332 264
512 315 79 22 88 23 821 26 814 3 823 2 948 -56 168 -79 270 -224 298 -424 17
-119 3 -188 -143 -695 -130 -456 -131 -458 -119 -512 15 -67 84 -143 145 -160
26 -7 180 -11 436 -11 361 0 403 -2 473 -20 181 -46 314 -164 378 -335 19 -52
22 -80 22 -205 0 -145 0 -145 -48 -305 -60 -198 -64 -251 -21 -321 22 -35 45
-56 84 -76 52 -27 58 -28 210 -28 143 0 160 2 207 24 28 13 63 39 77 58 28 36
26 30 487 1628 119 410 227 767 246 808 126 275 393 507 690 599 l89 27 515 6
515 5 48 28 c26 15 58 45 71 65 15 23 78 227 170 550 81 283 160 543 176 579
130 286 420 530 724 608 l91 24 -10550 0 c-8353 -1 -10539 -3 -10500 -13z"/>
<path d="M29980 10224 c130 -34 254 -121 319 -223 69 -106 100 -261 82 -397
-6 -43 -99 -387 -207 -764 -213 -745 -236 -811 -345 -955 -147 -195 -377 -354
-605 -417 -75 -21 -105 -22 -589 -27 -559 -7 -538 -4 -596 -68 -39 -41 -40
-45 -123 -329 -82 -281 -89 -330 -57 -400 22 -49 78 -97 130 -113 26 -7 166
-11 432 -11 436 0 478 -5 596 -61 82 -39 188 -140 225 -214 53 -105 63 -152
63 -285 -1 -120 -3 -132 -53 -305 -29 -99 -52 -193 -52 -209 0 -86 70 -184
146 -205 22 -6 107 -11 190 -11 142 0 153 1 203 26 32 16 62 41 77 63 16 25
129 401 354 1182 182 629 342 1173 356 1209 55 139 136 253 272 380 146 139
328 237 511 276 101 21 1509 20 1600 -1 190 -45 324 -166 387 -351 23 -67 27
-95 27 -189 0 -60 -5 -130 -12 -155 -20 -72 -432 -1509 -552 -1923 -61 -211
-109 -396 -109 -419 0 -84 67 -172 149 -197 21 -6 103 -11 182 -11 123 0 150
3 189 21 51 23 86 53 105 89 7 14 169 567 360 1230 369 1280 381 1316 482
1459 140 196 369 361 604 433 74 22 76 22 836 26 850 3 834 4 965 -65 128 -67
225 -190 262 -333 13 -49 15 73 15 1103 l1 1157 -3437 -1 c-3024 0 -3431 -2
-3383 -15z"/>
<path d="M36787 7683 c-3 -21 -334 -1181 -737 -2578 -526 -1827 -742 -2563
-770 -2621 -100 -216 -291 -409 -510 -519 -74 -37 -115 -52 -240 -91 -14 -4
-257 -10 -540 -13 l-515 -6 -47 -28 c-29 -17 -57 -44 -72 -70 -14 -24 -87
-261 -170 -550 -82 -286 -161 -541 -180 -582 -131 -284 -417 -522 -720 -600
l-91 -24 2303 -1 2302 0 0 3860 c0 2123 -2 3860 -4 3860 -2 0 -6 -17 -9 -37z"/>
<path d="M10210 5571 c-91 -29 -131 -74 -164 -184 -140 -464 -676 -2350 -676
-2379 0 -78 51 -155 125 -189 34 -16 65 -19 200 -19 180 0 213 9 273 71 39 40
0 -88 407 1324 292 1012 326 1136 322 1188 -4 71 -43 131 -107 167 -42 23 -55
25 -200 27 -85 1 -166 -1 -180 -6z"/>
<path d="M17146 5565 c-48 -17 -99 -65 -120 -113 -8 -21 -201 -678 -427 -1462
-287 -995 -422 -1449 -449 -1506 -140 -301 -440 -541 -763 -609 -56 -12 -199
-15 -801 -15 -697 0 -737 1 -810 20 -105 27 -169 63 -247 140 -77 76 -122 159
-145 270 -25 117 -14 221 46 434 27 99 50 194 50 211 0 51 -49 136 -98 170
l-44 30 -169 3 c-168 4 -171 3 -225 -23 -35 -17 -64 -40 -80 -64 -14 -22 -52
-131 -90 -262 -96 -331 -164 -459 -332 -621 -118 -114 -232 -189 -363 -241
-156 -62 -141 -61 -699 -67 -507 -5 -516 -5 -556 -27 -46 -25 -84 -66 -102
-109 -7 -16 -75 -247 -151 -514 -77 -267 -147 -505 -156 -530 -62 -171 -234
-384 -404 -500 -115 -78 -273 -146 -392 -169 -25 -5 2998 -9 7036 -9 5962 0
7071 2 7025 13 -202 50 -343 189 -395 390 -19 75 -19 221 0 304 9 35 274 961
590 2057 316 1096 575 2009 575 2029 0 74 -50 149 -123 187 -35 17 -55 19
-216 16 -177 -3 -178 -3 -219 -32 -23 -16 -51 -43 -61 -60 -11 -17 -171 -554
-355 -1194 -367 -1271 -363 -1257 -485 -1419 -140 -186 -355 -335 -581 -405
-75 -22 -76 -22 -837 -26 -848 -3 -834 -4 -963 64 -116 61 -207 166 -251 289
-27 76 -37 239 -19 327 6 35 185 664 397 1398 211 734 389 1358 395 1385 15
73 -2 128 -61 186 -28 29 -61 51 -86 58 -60 17 -291 14 -352 -4 -58 -17 -126
-82 -141 -136 -496 -1732 -823 -2853 -851 -2919 -65 -155 -204 -328 -354 -441
-94 -71 -251 -149 -362 -181 l-80 -23 -780 0 c-739 0 -783 1 -835 19 -95 32
-152 67 -218 129 -117 113 -171 265 -159 452 6 93 70 322 636 2280 94 325 171
603 171 619 0 86 -67 180 -146 204 -58 17 -317 15 -368 -3z"/>
<path d="M29130 4977 c-77 -41 -92 -70 -165 -322 -92 -321 -150 -435 -299
-593 -133 -141 -324 -259 -506 -313 -72 -22 -95 -23 -590 -28 -563 -7 -533 -3
-602 -69 -46 -44 -32 0 -262 -797 -101 -352 -282 -977 -401 -1390 -119 -412
-230 -781 -246 -818 -65 -154 -202 -325 -348 -435 -124 -94 -299 -175 -432
-201 -25 -5 1109 -9 2681 -9 2399 -1 2718 1 2670 14 -273 72 -434 318 -400
612 8 70 316 1179 397 1427 91 280 305 517 586 650 187 88 184 88 762 94 454
5 513 8 541 23 38 21 86 74 102 114 33 83 152 529 152 569 0 83 -39 148 -115
188 l-40 22 -1310 5 -1310 5 -73 27 c-185 67 -307 206 -347 393 -29 137 -21
206 51 466 38 137 45 175 40 213 -9 60 -58 124 -116 154 -41 20 -58 22 -211
22 -154 0 -169 -2 -209 -23z"/>
<path d="M1 2083 l-1 -2083 4038 1 c3506 1 4029 3 3978 15 -283 68 -452 350
-395 660 6 32 67 257 136 498 108 379 125 446 121 493 -6 67 -46 128 -108 163
l-45 25 -440 5 -440 5 -71 26 c-204 75 -327 229 -355 449 -13 102 2 203 56
392 25 86 45 176 45 200 -1 81 -55 160 -132 192 -58 25 -339 22 -393 -3 -87
-40 -101 -67 -176 -328 -81 -280 -132 -391 -241 -526 -158 -197 -392 -344
-619 -391 -67 -14 -271 -16 -1685 -18 -1503 -3 -1613 -2 -1672 14 -192 53
-333 188 -386 366 -23 80 -30 187 -17 272 7 41 67 269 135 505 68 237 127 445
131 462 4 20 0 54 -9 86 -19 64 -82 129 -142 146 -25 7 -184 11 -435 11 -361
0 -403 2 -473 20 -197 50 -339 186 -391 376 -11 41 -13 -272 -14 -2033z"/>
</g>
</svg>
