<?xml version="1.0" standalone="no"?>
<!DOCTYPE svg PUBLIC "-//W3C//DTD SVG 20010904//EN"
 "http://www.w3.org/TR/2001/REC-SVG-20010904/DTD/svg10.dtd">
<svg version="1.0" xmlns="http://www.w3.org/2000/svg"
 width="943.000000pt" height="1025.000000pt" viewBox="0 0 943.000000 1025.000000"
 preserveAspectRatio="xMidYMid meet">
<metadata>
Created by potrace 1.16, written by Peter Selinger 2001-2019
</metadata>
<g transform="translate(0.000000,1025.000000) scale(0.100000,-0.100000)"
fill="#000000" stroke="none">
<path d="M1 6598 c0 -3060 3 -3643 14 -3593 7 33 207 737 443 1565 721 2522
686 2401 746 2526 190 388 592 683 1001 733 55 7 297 11 625 11 l535 0 51 24
c55 26 113 86 131 138 7 18 87 295 178 616 91 321 179 618 195 660 134 348
466 657 831 775 168 55 62 52 2169 52 2188 0 2000 6 2160 -72 110 -53 225
-171 280 -284 22 -46 46 -113 54 -149 13 -61 14 -40 15 293 l1 357 -4715 0
-4715 0 1 -3652z"/>
<path d="M9416 9273 c-9 -70 -473 -1692 -507 -1776 -65 -158 -172 -310 -313
-445 -161 -154 -373 -276 -573 -329 l-98 -27 -1650 -8 c-907 -5 -1664 -11
-1681 -13 -44 -7 -117 -58 -148 -103 -39 -56 -866 -2952 -866 -3032 0 -99 59
-188 155 -231 38 -18 111 -19 1571 -19 1315 0 1544 -2 1617 -15 151 -26 260
-81 360 -182 72 -72 117 -144 154 -248 27 -76 28 -89 27 -245 l0 -165 -227
-795 c-268 -936 -265 -927 -330 -1054 -111 -219 -285 -403 -509 -542 l-72 -44
1552 0 1552 0 0 4660 c0 2563 -2 4660 -4 4660 -2 0 -6 -21 -10 -47z"/>
<path d="M1 1353 l-1 -1353 846 0 846 0 -65 69 c-77 82 -138 196 -163 307 -13
59 -15 106 -11 208 l5 131 161 564 c88 310 161 580 161 600 0 89 -62 190 -144
234 -40 22 -48 22 -566 28 -504 5 -528 6 -598 27 -253 77 -410 251 -466 517
-2 11 -4 -589 -5 -1332z"/>
</g>
</svg>
